<?xml version="1.0" encoding="UTF-8"?>
<svg width="2048px" height="792px" viewBox="0 0 2048 792" version="1.1" xmlns="http://www.w3.org/2000/svg" xmlns:xlink="http://www.w3.org/1999/xlink">
    <!-- Generator: Sketch 52.1 (67048) - http://www.bohemiancoding.com/sketch -->
    <title>Что входит в стоимость</title>
    <desc>Created with Sketch.</desc>
    <g id="Page-1" stroke="none" stroke-width="1" fill="none" fill-rule="evenodd">
        <g id="Роза-хутор-Copy-2" transform="translate(0.000000, -3107.000000)" stroke="#DCDCDC" stroke-width="2">
            <g id="Что-входит-в-стоимость" transform="translate(-17.000000, 3104.000000)">
                <path d="M2138,385 L31,713 L2138,385 Z" id="Line-2" stroke-linecap="square"></path>
                <path d="M2149,415 L42,743 L2149,415 Z" id="Line-2" stroke-linecap="square"></path>
                <g id="Group-2" transform="translate(1052.500000, 206.000000) scale(-1, 1) translate(-1052.500000, -206.000000) translate(0.000000, 4.000000)">
                    <path d="M1231,159.744009 C1130.08132,121.976015 1007.93462,128.218473 874,186" id="Line-2" stroke-linecap="square"></path>
                    <path d="M798,213.073913 C677.532162,239.53038 556.964809,121.495926 423,178.996305 C339.5,213.073913 146.5,258.147826 11,213.073913" id="Line-2" stroke-linecap="square"></path>
                    <path d="M1327,193 C1310.47162,185.76119 1301.55526,182.55839 1286,177" id="Line-2" stroke-linecap="square"></path>
                    <path d="M2105,225 C1970.70417,230.333333 1865.70417,222.666667 1790,202 C1715.34459,181.619638 1526.42852,110.994365 1337.06231,194.016358 C1332.35393,194.016358 1329.33316,194.016358 1328,194.016358" id="Line-2" stroke-linecap="square"></path>
                    <g id="Group-3" transform="translate(400.000000, 212.000000)" stroke-linecap="square">
                        <path d="M61.6367187,96.6240234 C66.4380704,106.01087 92.1653155,103.82323 88.7924984,83.0964713 C105.994267,87.3970461 111.730863,69.2174161 102.623856,62.6611555 C108.437454,61.249356 108.437454,53.8180686 102.623856,52.1245077 C115.604189,42.5172823 107.154099,22.3382762 91.7249644,25.0794336 C97.3781428,14.7735444 81.9891131,6.76007082 74.1943361,13.241275 C70.6235706,-4.41375833 42.5564289,-4.41375833 38.1970326,13.241275 C23.8218533,8.1342426 13.9328015,18.6653011 17.5342163,32.86135 C12.0262174,31.6780132 8.03177518,37.0645111 10.0578718,43.2079613 C-5.30228246,49.6524357 -2.89518989,76.4755344 16.0864315,76.4755344 C13.3432604,95.2164908 31.0754971,106.189728 48.8964844,96.6240234" id="Line-2"></path>
                        <path d="M51.67645,85.1283831 C37.7415727,76.2901819 37.2485545,64.4574035 31.8072519,69.2508711 C23.1471299,76.8799295 48.2969486,92.0082377 50.6410395,98.2831202 C50.6410395,110.056438 48.2969486,116.109363 38.2615318,127.485242 C39.6631434,130.011968 61.5959936,133.936408 73.2696175,127.485242 C70.67246,123.412298 60.0347586,114.761598 60.0347586,98.2831202 C73.2696175,88.0675057 82.5139681,79.0846793 77.714353,75.2973867 C72.1404533,70.8991195 60.0347586,89.5050246 60.0347586,85.1283831 C60.0347586,73.5513812 61.9406727,59 56.9349512,59 C50.6410395,59 52.9822209,69.2508711 51.67645,85.1283831 Z" id="Line-2"></path>
                    </g>
                    <g id="Group-3" transform="translate(801.000000, 167.000000)" stroke-linecap="square">
                        <path d="M46.9343822,73.9339556 C50.5904572,81.1165039 70.1809283,79.4425835 67.6126364,63.5830573 C80.7112308,66.8737348 85.0794648,52.9631988 78.1447711,47.9465346 C82.5716392,46.8662658 82.5716392,41.180056 78.1447711,39.8841913 C88.0288779,32.5330156 81.5944056,17.0926139 69.8456151,19.1900695 C74.1503289,11.3042961 62.4320769,5.17261399 56.4966046,10.1318472 C53.7775812,-3.37728238 32.4053541,-3.37728238 29.0858139,10.1318472 C18.1395764,6.22409117 10.609381,14.2821577 13.3517427,25.1445707 C9.15757837,24.2391151 6.1159389,28.3607101 7.65874639,33.0615035 C-4.03751784,37.9926321 -2.20459413,58.5169046 12.2493011,58.5169046 C10.1604643,72.8569516 23.6629932,81.2533609 37.2331028,73.9339556" id="Line-2"></path>
                        <path d="M39.3679316,64.9591816 C28.8456773,58.2077778 28.4733983,49.1688499 24.3646596,52.8305266 C17.8253838,58.6582795 36.8160633,70.214626 38.586091,75.007939 C38.586091,84.0014454 36.8160633,88.6252082 29.2382995,97.3151156 C30.2966593,99.2452535 46.8581993,102.243089 55.6729765,97.3151156 C53.7118575,94.2038386 45.6793075,87.595665 45.6793075,75.007939 C55.6729765,67.2043447 62.6534045,60.3424634 59.0292054,57.4493926 C54.8203423,54.0896052 45.6793075,68.3024494 45.6793075,64.9591816 C45.6793075,56.1156384 47.1184671,45 43.3386366,45 C38.586091,45 40.3539219,52.8305266 39.3679316,64.9591816 Z" id="Line-2"></path>
                    </g>
                    <g id="Group-3" transform="translate(1227.000000, 140.000000)" stroke-linecap="square">
                        <path d="M33.3629946,52.1329174 C35.9618913,57.1975348 49.8876479,56.0172063 48.0619945,44.8342071 C57.3730436,47.1545566 60.4781738,37.3458453 55.5486927,33.8084539 C58.6955026,33.0467259 58.6955026,29.0372189 55.5486927,28.1234682 C62.5747445,22.9399469 58.0008425,12.0524841 49.6492926,13.5314593 C52.70927,7.97097805 44.3794282,3.64735602 40.160237,7.1442512 C38.2274373,-2.38141707 23.0351312,-2.38141707 20.675458,7.1442512 C12.8943977,4.38878224 7.54160817,10.0707522 9.49099781,17.730146 C6.5096039,17.0916837 4.34747464,19.9979366 5.44416912,23.3125986 C-2.8700428,26.7896765 -1.56712113,41.2619199 8.70733449,41.2619199 C7.22249873,51.3734915 16.8206819,57.2940365 26.4669044,52.1329174" id="Line-2"></path>
                        <path d="M27.5017898,46.1528742 C20.1077733,41.3655152 19.8461718,34.9560935 16.95895,37.5525552 C12.3637832,41.6849618 25.708585,49.8794621 26.9523883,53.2783568 C26.9523883,59.6555704 25.708585,62.9342385 20.3836699,69.0961729 C21.1273822,70.4648161 32.7652211,72.5905543 38.9593889,69.0961729 C37.5813053,66.8899947 31.9368107,62.2041988 31.9368107,53.2783568 C38.9593889,47.7448989 43.8645545,42.8792013 41.31782,40.8277511 C38.3602406,38.4453564 31.9368107,48.523555 31.9368107,46.1528742 C31.9368107,39.8819981 32.948112,32 30.2920149,32 C26.9523883,32 28.1946478,37.5525552 27.5017898,46.1528742 Z" id="Line-2"></path>
                    </g>
                    <path d="M1326,194 C1205.20477,293.180264 985.29321,335.808693 769,348 C439.666667,357.666667 186.833333,360.666667 10.5,357" id="Line-2" stroke-linecap="square"></path>
                    <path d="M1336,194 C1246.04125,304.075906 1139.95708,403 450,403 C327.897267,404.333333 177.897267,398.333333 0,385" id="Line-2" stroke-linecap="square"></path>
                    <g id="Солнце" transform="translate(1329.000000, 87.500000) rotate(1.000000) translate(-1329.000000, -87.500000) translate(1175.000000, 11.000000)" stroke-linecap="round" stroke-linejoin="round">
                        <path d="M0,86 L52.656182,109.729892" id="Line-3"></path>
                        <path d="M58,53 L78.7665384,74.9766651" id="Line-3"></path>
                        <path d="M98,14 L113.503469,54.7840419" id="Line-3"></path>
                        <path d="M59.3529412,4.35882353 L94.4961676,64.7845376" id="Line-3"></path>
                        <path d="M160,19 L158.515667,47.9441878" id="Line-3"></path>
                        <path d="M139.357143,0.360294118 L143.496845,48.9445274" id="Line-3"></path>
                        <path d="M213.392227,1 L196,54.4514976" id="Line-3"></path>
                        <path d="M260.636364,56.3636364 L237,79.8958967" id="Line-3"></path>
                        <path d="M307.64,65.3584906 L254,102.858464" id="Line-3"></path>
                        <path d="M303.857603,125 L267,136.766172" id="Line-3"></path>
                        <path d="M246,152.26778 C224.811443,44.1779544 91.7714751,58.6045583 75.5527976,133.563092" id="Line-2"></path>
                    </g>
                    <path d="M443.5,171 C489.715372,142.925233 519.52545,121.636315 532.930233,107.133244 C565.902468,71.4595095 574.898487,66.1150135 592.55814,45 C598.804876,37.5310008 619.61883,54.1976675 655,95" id="Line" stroke-linecap="square"></path>
                    <path d="M570,171 C675.889979,101 690.657515,33.7407948 738,3.5 C766.202948,-14.5150991 822.202948,41.3182342 906,171" id="Line" stroke-linecap="square"></path>
                </g>
                <g id="Group-11" transform="translate(779.500000, 660.000000) scale(-1, 1) translate(-779.500000, -660.000000) translate(573.000000, 565.000000)" stroke-linecap="square">
                    <path d="M282.4375,173.510973 C236.644531,130.816406 194.470703,117.261719 106.503906,144.6875" id="Line-2"></path>
                    <path d="M412.933594,169.068621 C367.140625,126.374054 324.966797,112.819367 237,140.245148" id="Line-2"></path>
                    <path d="M114.085938,159.234375 C86.6210938,118.891371 14.3710938,159.234375 0.5390625,189.074603" id="Line-2"></path>
                </g>
                <g id="Group-3" transform="translate(156.000000, 373.000000)" stroke-linecap="square">
                    <path d="M85.9521216,135.545585 C92.6475843,148.713591 128.52411,145.644736 123.820732,116.568938 C147.808519,122.601847 155.808177,97.0991979 143.108497,87.9019801 C151.215532,85.9214873 151.215532,75.4967693 143.108497,73.1210174 C161.209511,59.6438619 149.425899,31.3364588 127.910042,35.1817941 C135.793373,20.7245429 114.333442,9.48312565 103.463661,18.5750531 C98.4842452,-6.19168437 59.3447449,-6.19168437 53.2655868,18.5750531 C33.2194652,11.4108338 19.4292278,26.1839558 24.4513842,46.0983797 C16.770505,44.4383776 11.2002737,51.9946352 14.025656,60.6127564 C-7.39400857,69.6531589 -4.03732902,107.280992 22.432455,107.280992 C18.6071154,133.571078 43.3346381,148.964495 68.1859232,135.545585" id="Line-2"></path>
                    <path d="M73.081604,119.289421 C53.743407,107.014142 53.0592185,90.579727 45.5080231,97.237321 C33.4898946,107.833235 68.3916838,128.844775 71.6447078,137.559889 C71.6447078,153.911719 68.3916838,162.31856 54.4649829,178.118392 C56.4100766,181.627734 86.8475014,187.078344 103.047633,178.118392 C99.4434138,172.461525 84.6808895,160.446664 84.6808895,137.559889 C103.047633,123.371536 115.876527,110.895388 109.215837,105.635259 C101.480629,99.5265549 84.6808895,125.36809 84.6808895,119.289421 C84.6808895,103.210252 87.3258315,83 80.3791159,83 C71.6447078,83 74.8936943,97.237321 73.081604,119.289421 Z" id="Line-2"></path>
                </g>
                <g id="Group-14" transform="translate(1486.000000, 724.000000)" stroke-linecap="square">
                    <path d="M425.933594,56.0686211 C380.140625,13.3740542 337.966797,-0.180633301 250,27.2451479" id="Line-2"></path>
                    <path d="M289.933594,66.2138341 C246.708367,-4.57150921 89.3082965,-37.7508173 0.5,69" id="Line-2"></path>
                </g>
            </g>
        </g>
    </g>
</svg>