<?xml version="1.0" encoding="UTF-8"?>
<svg width="24px" height="20px" viewBox="0 0 24 20" version="1.1" xmlns="http://www.w3.org/2000/svg" xmlns:xlink="http://www.w3.org/1999/xlink">
    <!-- Generator: Sketch 52.1 (67048) - http://www.bohemiancoding.com/sketch -->
    <title>Path</title>
    <desc>Created with Sketch.</desc>
    <g id="Page-1" stroke="none" stroke-width="1" fill="none" fill-rule="evenodd">
        <g id="Мобила-375" transform="translate(-24.000000, -984.000000)" fill="#000000">
            <g id="Об-адлере" transform="translate(0.000000, 723.000000)">
                <g id="1" transform="translate(24.000000, 0.000000)">
                    <g id="Group-20" transform="translate(0.000000, 157.000000)">
                        <g id="left-arrow" transform="translate(0.000000, 104.000000)">
                            <path d="M22.6509268,8.11795122 L22.6883902,8.12614634 L6.62868293,8.12614634 L11.6772683,3.06643902 C11.9244878,2.81941463 12.0600976,2.48478049 12.0600976,2.13356098 C12.0600976,1.78234146 11.9244878,1.45004878 11.6772683,1.20243902 L10.8917073,0.416487805 C10.6446829,0.169463415 10.3155122,0.0328780488 9.9644878,0.0328780488 C9.61326829,0.0328780488 9.28390244,0.168487805 9.03687805,0.415512195 L0.382634146,9.06897561 C0.134634146,9.31697561 -0.000975609756,9.64731707 -1.69406589e-21,9.99873171 C-0.000975609756,10.3520976 0.134634146,10.6826341 0.382634146,10.9302439 L9.03687805,19.5844878 C9.28390244,19.8313171 9.61307317,19.967122 9.9644878,19.967122 C10.3155122,19.967122 10.6446829,19.831122 10.8917073,19.5844878 L11.6772683,18.7985366 C11.9244878,18.5519024 12.0600976,18.2225366 12.0600976,17.8713171 C12.0600976,17.5202927 11.9244878,17.2082927 11.6772683,16.9614634 L6.57170732,11.8734634 L22.668878,11.8734634 C23.3921951,11.8734634 24,11.2500488 24,10.527122 L24,9.4155122 C24,8.69258537 23.3742439,8.11795122 22.6509268,8.11795122 Z" id="Path"></path>
                        </g>
                    </g>
                </g>
            </g>
        </g>
    </g>
</svg>