<?xml version="1.0" encoding="UTF-8"?>
<svg width="146px" height="200px" viewBox="0 0 146 200" version="1.1" xmlns="http://www.w3.org/2000/svg" xmlns:xlink="http://www.w3.org/1999/xlink">
    <!-- Generator: Sketch 51.2 (57519) - http://www.bohemiancoding.com/sketch -->
    <title>Combined Shape</title>
    <desc>Created with Sketch.</desc>
    <defs></defs>
    <g id="Page-1" stroke="none" stroke-width="1" fill="none" fill-rule="evenodd">
        <g id="Роза-хутор-Copy-2" transform="translate(-460.000000, 0.000000)" fill="#FFFFFF">
            <g id="Group">
                <g transform="translate(460.000000, 0.000000)" id="Combined-Shape">
                    <path d="M103.101346,184.591809 C98.3164113,183.744264 93.2806261,179.801041 89.3932934,177.792617 C82.2124787,174.082255 76.7603154,174.556537 73.0043808,175.2243 C65.9140088,176.484487 58.3953136,181.484145 51.5489665,184.819533 C36.6173769,192.096432 19.4622604,197.226217 0,200 L0,0 L145.116279,0 L145.116279,199.965756 C145.114573,199.965756 145.112866,199.965756 145.11116,199.967468 C142.044638,198.695295 139.894489,196.981371 137.725569,194.990069 C133.143704,190.781453 127.619869,184.27505 119.968069,183.393261 C113.928881,182.696391 109.017668,185.639682 103.101346,184.591809 Z M120.306019,85.5813953 L112.55814,85.5813953 L112.55814,145.116279 L131.162791,145.116279 L131.162791,137.092645 L120.306019,137.092645 L120.306019,85.5813953 Z M17.6744186,85.5813953 L17.6744186,93.4388694 L26.304727,93.4388694 L26.304727,145.116279 L34.1484454,145.116279 L34.1484454,93.4388694 L42.7906977,93.4388694 L42.7906977,85.5813953 L17.6744186,85.5813953 Z M56.1467677,93.3168022 L61.1879735,93.3168022 C64.8337249,93.3168022 67.7969538,96.3057935 67.7969538,99.9354053 C67.7969538,103.563304 64.8337249,106.518038 61.1879735,106.518038 L56.1467677,106.518038 L56.1467677,93.3168022 Z M78.1395349,145.116279 L69.4018953,111.53509 C72.9040467,108.907518 75.176306,104.705801 75.176306,99.9799405 C75.176306,92.0424127 68.7599187,85.5813953 60.8737428,85.5813953 L48.372093,85.5813953 L48.372093,145.116279 L56.1467677,145.116279 L56.1467677,114.381911 L62.1796584,114.381911 L69.7262624,145.116279 L78.1395349,145.116279 Z M98.8661559,85.5813953 L93.4858141,132.142111 L88.1157043,85.5813953 L80,85.5813953 L87.5410053,145.116279 L99.4118642,145.116279 L106.976744,85.5813953 L98.8661559,85.5813953 Z M74.9837137,45.3168547 C74.9837137,42.7599842 77.018935,40.6923593 79.5289278,40.6923593 C82.0457274,40.6923593 84.0809487,42.7599842 84.0809487,45.3168547 L84.0809487,67.2585727 C84.0809487,69.8102568 82.0457274,71.8813393 79.5289278,71.8813393 C77.018935,71.8813393 74.9837137,69.8102568 74.9837137,67.2585727 L74.9837137,45.3168547 Z M79.5340329,78.1395349 C85.4440024,78.1395349 90.2325581,73.2781962 90.2325581,67.2758605 L90.2325581,45.3151259 C90.2325581,39.3127902 85.7383948,34.4186047 79.5340329,34.4186047 C73.2650068,34.4186047 68.8372093,39.3127902 68.8372093,45.3151259 L68.8372093,67.2758605 C68.8372093,73.2781962 73.6291684,78.1395349 79.5340329,78.1395349 Z M34.5581575,54.8093555 L28.465908,50.2263506 C26.068391,48.4503931 25.8421124,46.1002668 25.8421124,45.3036723 C25.8421124,42.4276557 27.6039764,40.3620275 29.901309,40.3620275 C31.6942648,40.3620275 32.6563807,41.3965658 33.3922181,43.0466545 C33.8931402,44.1587832 34.6963429,46.6158118 34.6963429,46.6158118 L40.2565787,44.6450162 C39.779839,42.3035111 39.0146372,40.3947878 38.0248842,38.9516068 C36.1144708,36.163526 33.4647654,34.4186047 29.8702173,34.4186047 C23.8194233,34.4186047 19.805137,38.9809188 19.805137,45.3036723 C19.805137,50.7660348 23.7192389,54.5248574 26.7627727,56.5680707 C28.7630066,57.9095221 30.3227745,59.0940685 30.3227745,59.0940685 C33.4509469,61.266599 34.7395259,63.8529449 34.7395259,66.9117299 C34.7395259,70.5343384 32.8982052,72.4103012 30.412595,72.4292678 C28.3760874,72.4413374 26.177212,71.5999129 24.9611803,66.9841476 C24.6744456,65.9047793 24.2115244,63.5063745 24.2115244,63.5063745 L18.6046512,65.4978608 C18.6046512,65.4978608 18.8689308,67.9238533 19.5909496,70.1739742 C20.9607125,74.4569629 23.9852458,78.2209583 30.3124106,78.1381952 C36.4012055,78.0554322 40.9302326,73.3896642 40.9302326,66.6375773 C40.9302326,61.618342 38.5776258,57.7026144 34.5581575,54.8093555 Z M58.3838433,35.3488372 L58.3838433,60.0477344 L49.3395349,35.3488372 L44.7077111,35.3488372 L44.6511628,35.3488372 L44.6511628,78.1395349 L50.5013464,78.1395349 L50.4550796,53.3393071 L59.4925337,78.1395349 L64.1860465,78.1395349 L64.1860465,35.3488372 L58.3838433,35.3488372 Z M120.386891,35.3488372 L116.550835,65.7612513 L112.89542,35.3488372 L106.624126,35.3488372 L102.992569,65.7612513 L99.1479929,35.3488372 L93.0232558,35.3488372 L99.2025259,78.1395349 L106.763867,78.1395349 L109.76659,55.03352 L112.759088,78.1395349 L120.328949,78.1395349 L126.511628,35.3488372 L120.386891,35.3488372 Z"></path>
                </g>
            </g>
        </g>
    </g>
</svg>