<?xml version="1.0" encoding="UTF-8"?>
<svg width="1010px" height="984px" viewBox="0 0 1010 984" version="1.1" xmlns="http://www.w3.org/2000/svg" xmlns:xlink="http://www.w3.org/1999/xlink">
    <!-- Generator: Sketch 52.1 (67048) - http://www.bohemiancoding.com/sketch -->
    <title>Group 23</title>
    <desc>Created with Sketch.</desc>
    <defs>
        <path d="M914.297553,455 L914.297553,912.705625 L1010,912.705625 L1010,984 L846,984 L846,455 L914.297553,455 Z M0,455 L224,455 L224,524.817954 L146.923913,524.817954 L146.923913,984 L76.9695652,984 L76.9695652,524.817954 L0,524.817954 L0,455 Z M538,984 L463.102157,984 L395.919694,710.908335 L342.212826,710.908335 L342.212826,984 L273,984 L273,455 L384.293984,455 C454.499432,455 511.620318,512.409673 511.620318,582.938948 C511.620318,624.930805 491.391884,662.265357 460.214529,685.612769 L538,984 Z M342.466019,521.76699 L342.466019,639.893204 L386.997815,639.893204 C419.20278,639.893204 445.378641,613.4539 445.378641,580.991032 C445.378641,548.512837 419.20278,521.76699 386.997815,521.76699 L342.466019,521.76699 Z M722.144383,455 L794,455 L726.979076,984 L621.809406,984 L555,455 L626.900942,455 L674.477337,868.717422 L722.144383,455 Z M549.992444,388 C497.554681,388 455,344.858205 455,291.590668 L455,96.7008304 C455,43.4332938 494.320767,0 549.992444,0 C605.089875,0 645,43.4332938 645,96.7008304 L645,291.590668 C645,344.858205 602.475543,388 549.992444,388 Z M511.486486,95.1076 L511.486486,290.338246 C511.486486,313.042345 529.293283,331.470199 551.254007,331.470199 C573.274284,331.470199 591.081081,313.042345 591.081081,290.338246 L591.081081,95.1076 C591.081081,72.3573538 573.274284,53.9602649 551.254007,53.9602649 C529.293283,53.9602649 511.486486,72.3573538 511.486486,95.1076 Z M148.48766,180.957068 C184.135319,206.633201 205,241.383201 205,285.926244 C205,345.847424 164.833191,387.253633 110.833191,387.988111 C54.7191489,388.722589 27.8953191,355.319133 15.747234,317.309886 C9.34382979,297.34126 7,275.811867 7,275.811867 L56.7259574,258.138485 C56.7259574,258.138485 60.8314894,279.423052 63.3744681,289.001872 C74.1591489,329.964333 93.6604255,337.431528 111.721702,337.324417 C133.765957,337.156099 150.09617,320.507926 150.09617,288.359203 C150.09617,261.214113 138.668085,238.261669 110.925106,218.981616 C110.925106,218.981616 97.0919149,208.469397 79.3523404,196.564729 C52.36,178.432299 17.6468085,145.074747 17.6468085,96.5991855 C17.6468085,40.488111 53.2485106,0 106.911489,0 C138.790638,0 162.290213,15.4852488 179.233191,40.2279833 C188.011064,53.035447 194.797447,69.9743506 199.025532,90.7539631 L149.713191,108.243725 C149.713191,108.243725 142.589787,86.4389036 138.147234,76.5693528 C131.621277,61.9256936 123.088511,52.744716 107.187234,52.744716 C86.812766,52.744716 71.187234,71.0760679 71.187234,96.5991855 C71.187234,103.668538 73.1940426,124.524659 94.4570213,140.285337 L148.48766,180.957068 Z M362.02193,7 L414,7 L414,387 L371.953947,387 L290.993421,166.763195 L291.407895,387 L239,387 L239,7 L239.506579,7 L281,7 L362.02193,226.336946 L362.02193,7 Z M914.498346,7 L969,7 L913.982749,387 L846.621495,387 L819.992418,181.808541 L793.272353,387 L725.986922,387 L671,7 L725.501654,7 L759.713043,277.07546 L792.028853,7 L847.834665,7 L880.362781,277.07546 L914.498346,7 Z" id="path-1"></path>
        <linearGradient x1="46.2818905%" y1="-4.3722885%" x2="46.2818905%" y2="112.281386%" id="linearGradient-3">
            <stop stop-color="#7141BF" offset="0%"></stop>
            <stop stop-color="#508EFF" offset="100%"></stop>
        </linearGradient>
    </defs>
    <g id="Page-1" stroke="none" stroke-width="1" fill="none" fill-rule="evenodd" opacity="0.05">
        <g id="Роза-хутор-Copy-2" transform="translate(-539.000000, -1154.000000)">
            <g id="Об-адлере" transform="translate(0.000000, 1080.000000)">
                <g id="фон">
                    <g id="Group-23" transform="translate(539.000000, 74.000000)">
                        <mask id="mask-2" fill="white">
                            <use xlink:href="#path-1"></use>
                        </mask>
                        <use id="Combined-Shape" fill="#4080FF" xlink:href="#path-1"></use>
                        <rect id="Rectangle" stroke="#979797" fill="url(#linearGradient-3)" mask="url(#mask-2)" x="-55.5" y="-45.5" width="1170" height="921"></rect>
                    </g>
                </g>
            </g>
        </g>
    </g>
</svg>