<?xml version="1.0" encoding="UTF-8"?>
<svg width="32px" height="23px" viewBox="0 0 32 23" version="1.1" xmlns="http://www.w3.org/2000/svg" xmlns:xlink="http://www.w3.org/1999/xlink">
    <!-- Generator: Sketch 52.1 (67048) - http://www.bohemiancoding.com/sketch -->
    <title>menu</title>
    <desc>Created with Sketch.</desc>
    <g id="Page-1" stroke="none" stroke-width="1" fill="none" fill-rule="evenodd">
        <g id="Роза-хутор" transform="translate(-646.000000, -39.000000)" fill="#FFFFFF" fill-rule="nonzero">
            <g id="Group">
                <g id="Group-8" transform="translate(646.000000, 33.000000)">
                    <g id="menu" transform="translate(0.000000, 6.000000)">
                        <path d="M30.707375,9.832375 L1.292625,9.832375 C0.57875,9.832375 0,10.4110625 0,11.125 C0,11.8389375 0.57875,12.417625 1.292625,12.417625 L30.707375,12.417625 C31.4213125,12.417625 32,11.8389375 32,11.125 C32,10.411125 31.4213125,9.832375 30.707375,9.832375 Z" id="Shape"></path>
                        <path d="M30.707375,0.0274375 L1.292625,0.0274375 C0.57875,0.0274375 0,0.6061875 0,1.3200625 C0,2.0339375 0.57875,2.6126875 1.292625,2.6126875 L30.707375,2.6126875 C31.4213125,2.6126875 32,2.0339375 32,1.3200625 C32,0.6061875 31.4213125,0.0274375 30.707375,0.0274375 Z" id="Shape"></path>
                        <path d="M30.707375,19.6373125 L1.292625,19.6373125 C0.57875,19.6373125 0,20.216 0,20.9299375 C0,21.643875 0.57875,22.2225625 1.292625,22.2225625 L30.707375,22.2225625 C31.4213125,22.2225625 32,21.643875 32,20.9299375 C32,20.216 31.4213125,19.6373125 30.707375,19.6373125 Z" id="Shape"></path>
                    </g>
                </g>
            </g>
        </g>
    </g>
</svg>