<?xml version="1.0" encoding="UTF-8"?>
<svg width="13px" height="12px" viewBox="0 0 13 12" version="1.1" xmlns="http://www.w3.org/2000/svg" xmlns:xlink="http://www.w3.org/1999/xlink">
    <!-- Generator: Sketch 51.2 (57519) - http://www.bohemiancoding.com/sketch -->
    <title>Shape</title>
    <desc>Created with Sketch.</desc>
    <defs></defs>
    <g id="Page-1" stroke="none" stroke-width="1" fill="none" fill-rule="evenodd">
        <g id="Мобила-375" transform="translate(-334.000000, -38.000000)" fill="#fff" fill-rule="nonzero">
            <g id="Group-7" transform="translate(8.000000, 20.000000)">
                <g id="Group-4" transform="translate(326.000000, 18.000000)">
                    <g id="cancel">
                        <path d="M7.53813517,5.85666891 L12.4817584,1.18437886 C12.7684569,0.913415877 12.7684569,0.474185225 12.4817584,0.203222239 C12.1954269,-0.0677407464 11.7299547,-0.0677407464 11.4436232,0.203222239 L6.5,4.87551228 L1.55711099,0.203222239 C1.2707795,-0.0677407464 0.80567439,-0.0677407464 0.518975814,0.203222239 C0.232277239,0.474185225 0.232277239,0.913415877 0.518975814,1.18437886 L5.46186483,5.85666891 L0.215023932,10.8155344 C-0.0716746439,11.0864974 -0.0716746439,11.525728 0.215023932,11.796691 C0.358189673,11.932346 0.546140596,12 0.734091519,12 C0.922042441,12 1.10999336,11.932346 1.25315911,11.796691 L6.5,6.83782553 L11.7468409,11.796691 C11.8903737,11.932346 12.0779576,12 12.2659085,12 C12.4538594,12 12.6414432,11.932346 12.7849761,11.796691 C13.0716746,11.525728 13.0716746,11.0864974 12.7849761,10.8155344 L7.53813517,5.85666891 Z" id="Shape"></path>
                    </g>
                </g>
            </g>
        </g>
    </g>
</svg>