<?xml version="1.0" encoding="UTF-8"?>
<svg width="143px" height="64px" viewBox="0 0 143 64" version="1.1" xmlns="http://www.w3.org/2000/svg" xmlns:xlink="http://www.w3.org/1999/xlink">
    <!-- Generator: Sketch 52.1 (67048) - http://www.bohemiancoding.com/sketch -->
    <title>102</title>
    <desc>Created with Sketch.</desc>
    <g id="Page-1" stroke="none" stroke-width="1" fill="none" fill-rule="evenodd" fill-opacity="0">
        <g id="Роза-хутор-Copy-2" transform="translate(-1369.000000, -1432.000000)" fill="#FFFFFF" stroke="#373737" stroke-width="4">
            <g id="Об-адлере" transform="translate(0.000000, 1080.000000)">
                <g id="1" transform="translate(0.000000, 24.000000)">
                    <g id="Group-20" transform="translate(448.000000, 330.000000)">
                        <g id="Group-12" transform="translate(835.000000, 0.000000)">
                            <path d="M91.42,59 L91.42,47 L103.58,47 L103.58,23.16 C103.58,21 103.66,18.76 103.66,18.76 L103.5,18.76 C103.5,18.76 102.78,20.36 101.26,21.8 L97.82,24.92 L89.74,16.28 L105.18,1.8 L117.26,1.8 L117.26,47 L129.5,47 L129.5,59 L91.42,59 Z M156.62,59.96 C140.38,59.96 135.1,46.68 135.1,30.28 C135.1,13.88 140.38,0.84 156.62,0.84 C172.86,0.84 178.14,13.88 178.14,30.28 C178.14,46.68 172.86,59.96 156.62,59.96 Z M156.62,47.16 C162.14,47.16 163.74,39.64 163.74,30.28 C163.74,21 162.14,13.64 156.62,13.64 C151.1,13.64 149.5,21 149.5,30.28 C149.5,39.64 151.1,47.16 156.62,47.16 Z M186.46,59 C186.06,56.76 185.82,54.76 185.82,52.84 C185.82,31.72 210.54,27.96 210.54,19.72 C210.54,15.72 207.34,14.04 204.38,14.04 C200.7,14.04 197.58,16.92 195.9,20.12 L185.5,13.16 C188.86,6.68 195.34,0.84 205.66,0.84 C215.02,0.84 225.18,6.2 225.18,18.36 C225.18,36.2 202.06,39.64 201.34,47 L226.06,47 L226.06,59 L186.46,59 Z" id="102"></path>
                        </g>
                    </g>
                </g>
            </g>
        </g>
    </g>
</svg>