<?xml version="1.0" encoding="UTF-8"?>
<svg width="143px" height="64px" viewBox="0 0 143 64" version="1.1" xmlns="http://www.w3.org/2000/svg" xmlns:xlink="http://www.w3.org/1999/xlink">
    <!-- Generator: Sketch 52.1 (67048) - http://www.bohemiancoding.com/sketch -->
    <title>180</title>
    <desc>Created with Sketch.</desc>
    <g id="Page-1" stroke="none" stroke-width="1" fill="none" fill-rule="evenodd" fill-opacity="0">
        <g id="Роза-хутор-Copy-2" transform="translate(-956.000000, -1432.000000)" fill="#FFFFFF" stroke="#373737" stroke-width="4">
            <g id="Об-адлере" transform="translate(0.000000, 1080.000000)">
                <g id="1" transform="translate(0.000000, 24.000000)">
                    <g id="Group-20" transform="translate(448.000000, 314.000000)">
                        <g id="Group-13" transform="translate(414.000000, 16.000000)">
                            <path d="M98.54,59 L98.54,47 L110.7,47 L110.7,23.16 C110.7,21 110.78,18.76 110.78,18.76 L110.62,18.76 C110.62,18.76 109.9,20.36 108.38,21.8 L104.94,24.92 L96.86,16.28 L112.3,1.8 L124.38,1.8 L124.38,47 L136.62,47 L136.62,59 L98.54,59 Z M141.74,42.2 C141.74,35.16 147.34,30.04 149.66,28.28 C146.62,25.56 144.46,22.12 144.46,17.32 C144.46,9 150.3,0.84 163.66,0.84 C174.3,0.84 183.02,6.76 183.02,17.4 C183.02,23.16 178.94,28.68 177.42,30.52 C181.26,33.16 184.14,36.76 184.14,42.52 C184.14,51.24 177.1,59.96 162.94,59.96 C149.02,59.96 141.74,51.32 141.74,42.2 Z M167.26,25.48 C168.06,24.2 169.34,21.72 169.34,18.44 C169.34,15.24 167.1,13.16 163.34,13.16 C159.74,13.16 158.14,15.16 158.14,17.64 C158.14,21.4 162.3,23.4 167.26,25.48 Z M156.06,41 C156.06,44.68 159.1,47.64 162.94,47.64 C167.18,47.64 169.82,45.56 169.82,41.8 C169.82,38.52 164.78,36.6 159.18,33.96 C157.82,35.4 156.06,37.88 156.06,41 Z M213.42,59.96 C197.18,59.96 191.9,46.68 191.9,30.28 C191.9,13.88 197.18,0.84 213.42,0.84 C229.66,0.84 234.94,13.88 234.94,30.28 C234.94,46.68 229.66,59.96 213.42,59.96 Z M213.42,47.16 C218.94,47.16 220.54,39.64 220.54,30.28 C220.54,21 218.94,13.64 213.42,13.64 C207.9,13.64 206.3,21 206.3,30.28 C206.3,39.64 207.9,47.16 213.42,47.16 Z" id="180"></path>
                        </g>
                    </g>
                </g>
            </g>
        </g>
    </g>
</svg>