<?xml version="1.0" encoding="UTF-8"?>
<svg width="95px" height="64px" viewBox="0 0 95 64" version="1.1" xmlns="http://www.w3.org/2000/svg" xmlns:xlink="http://www.w3.org/1999/xlink">
    <!-- Generator: Sketch 52.1 (67048) - http://www.bohemiancoding.com/sketch -->
    <title>28</title>
    <desc>Created with Sketch.</desc>
    <g id="Page-1" stroke="none" stroke-width="1" fill="none" fill-rule="evenodd" fill-opacity="0">
        <g id="Роза-хутор-Copy-2" transform="translate(-552.000000, -1432.000000)" fill="#FFFFFF" stroke="#373737" stroke-width="4">
            <g id="Об-адлере" transform="translate(0.000000, 1080.000000)">
                <g id="1" transform="translate(0.000000, 24.000000)">
                    <g id="Group-20" transform="translate(448.000000, 314.000000)">
                        <g id="Group-11" transform="translate(0.000000, 16.000000)">
                            <path d="M107.6,59 C107.2,56.76 106.96,54.76 106.96,52.84 C106.96,31.72 131.68,27.96 131.68,19.72 C131.68,15.72 128.48,14.04 125.52,14.04 C121.84,14.04 118.72,16.92 117.04,20.12 L106.64,13.16 C110,6.68 116.48,0.84 126.8,0.84 C136.16,0.84 146.32,6.2 146.32,18.36 C146.32,36.2 123.2,39.64 122.48,47 L147.2,47 L147.2,59 L107.6,59 Z M154.56,42.2 C154.56,35.16 160.16,30.04 162.48,28.28 C159.44,25.56 157.28,22.12 157.28,17.32 C157.28,9 163.12,0.84 176.48,0.84 C187.12,0.84 195.84,6.76 195.84,17.4 C195.84,23.16 191.76,28.68 190.24,30.52 C194.08,33.16 196.96,36.76 196.96,42.52 C196.96,51.24 189.92,59.96 175.76,59.96 C161.84,59.96 154.56,51.32 154.56,42.2 Z M180.08,25.48 C180.88,24.2 182.16,21.72 182.16,18.44 C182.16,15.24 179.92,13.16 176.16,13.16 C172.56,13.16 170.96,15.16 170.96,17.64 C170.96,21.4 175.12,23.4 180.08,25.48 Z M168.88,41 C168.88,44.68 171.92,47.64 175.76,47.64 C180,47.64 182.64,45.56 182.64,41.8 C182.64,38.52 177.6,36.6 172,33.96 C170.64,35.4 168.88,37.88 168.88,41 Z" id="28"></path>
                        </g>
                    </g>
                </g>
            </g>
        </g>
    </g>
</svg>