<?xml version="1.0" encoding="UTF-8"?>
<svg width="17px" height="29px" viewBox="0 0 17 29" version="1.1" xmlns="http://www.w3.org/2000/svg" xmlns:xlink="http://www.w3.org/1999/xlink">
    <!-- Generator: Sketch 52.2 (67145) - http://www.bohemiancoding.com/sketch -->
    <title>Combined Shape</title>
    <desc>Created with Sketch.</desc>
    <g id="Page-1" stroke="none" stroke-width="1" fill="none" fill-rule="evenodd">
        <g id="Роза-хутор-Copy-2" transform="translate(-1404.000000, -8074.000000)" fill="#4A4A4A" fill-rule="nonzero">
            <g id="Отзывы" transform="translate(0.000000, 6918.000000)">
                <g id="Group-5" transform="translate(1088.000000, 1129.000000)">
                    <g id="Group-24" transform="translate(324.500000, 42.026316) rotate(180.000000) translate(-324.500000, -42.026316) translate(316.000000, 27.526316)">
                        <path d="M5.16891127,15.1645291 L15.5811385,25.5767563 C17.2682704,27.2638883 14.7375725,29.7945862 13.0504405,28.1074542 L1.43056971,16.4875835 C1.39100974,16.4489875 1.35304492,16.4087666 1.31682979,16.3670642 C1.00301797,16.0094316 0.866745867,15.6200134 0.8625741,15.2442488 C0.852835336,14.8685872 0.974601052,14.4743921 1.27496129,14.1053899 C1.30960813,14.0623757 1.3460583,14.0207772 1.38416266,13.9807435 L13.0044748,1.46656119 C14.6280073,-0.281858368 17.2506366,2.1534403 15.6271041,3.90185986 L5.16891127,15.1645291 Z" id="Combined-Shape"></path>
                    </g>
                </g>
            </g>
        </g>
    </g>
</svg>