<?xml version="1.0" encoding="UTF-8"?>
<svg width="194px" height="228px" viewBox="0 0 194 228" version="1.1" xmlns="http://www.w3.org/2000/svg" xmlns:xlink="http://www.w3.org/1999/xlink">
    <!-- Generator: Sketch 51.2 (57519) - http://www.bohemiancoding.com/sketch -->
    <title>yeti</title>
    <desc>Created with Sketch.</desc>
    <defs></defs>
    <g id="Page-1" stroke="none" stroke-width="1" fill="none" fill-rule="evenodd">
        <g id="Роза-хутор" transform="translate(-126.000000, -498.000000)" fill="#FFFFFE">
            <g id="Group">
                <g id="yeti" transform="translate(223.500000, 612.000000) scale(-1, 1) translate(-223.500000, -612.000000) translate(126.000000, 498.000000)">
                    <path d="M176.258113,146 C170.367219,113.614017 159.435661,98.5876869 159.324321,98.4400938 L157.364063,95.7946846 L160.625536,96.2216906 C164.26489,96.6926366 172.07668,96.7151698 173.003388,93.7328878 C173.58708,91.8569907 168.775845,83.8058432 163.917375,77.4627197 L162.418222,75.5079561 L164.863202,75.2251632 C168.594777,74.7947772 172.766088,73.3278595 172.789706,71.913895 C172.894298,65.6620314 160.426474,54.6094486 155.614114,50.8768077 L154.915709,50.3371352 L155.105775,49.4729832 C159.555998,29.0803482 152.21431,16.4087479 148.302792,11.3826957 C147.262495,32.9177689 140.621461,38.2784406 140.325679,38.5060269 L139.622775,39.0456994 L138.836648,38.6389733 C111.294071,24.3742688 79.1483195,38.6209467 78.8255462,38.7651598 L77.7357643,39.2575124 L77.0823451,38.2547806 C76.7370788,37.7241214 69.0321302,25.6350069 69.8924843,5.76401772 C65.7672834,9.79409813 57.7226917,20.5593814 59.0059126,42.3907675 L59.0407766,42.9800133 L58.642652,43.4149059 C51.1176467,51.6519531 40.7956472,64.832806 41.4130778,68.3480006 C42.0057662,69.2470792 47.37595,69.1344127 52.4469781,68.0978809 L56.0312244,67.3644221 L53.8437882,70.3016375 C45.4438085,81.5885667 38.9883414,92.750436 39.748602,94.6781597 C40.4751232,95.9141111 50.1628224,94.1858071 59.471516,90.4441529 L62.2831306,89.1766549 L59.3556775,93.0084423 C59.2195953,93.1481487 45.6383722,107.121047 39.9690325,123.295449 L37.3396106,122.370457 C41.3568455,110.905514 48.9684485,100.756517 53.5693746,95.2921921 C47.2938509,97.4103221 39.2301402,99.3301591 37.3306134,96.0673375 C35.1847892,92.3752566 43.9738964,79.1707438 49.5746326,71.4057691 C46.3660181,71.8305218 41.9337888,72.0874014 39.9307946,70.7207569 C39.2368881,70.2475576 38.7982762,69.594092 38.6644434,68.8313398 C37.6286446,62.912969 52.2760319,46.2822681 56.1897994,41.9648882 C54.609672,11.6125353 70.1084163,1.83421049 70.773082,1.42973778 L73.1280904,0 L72.8851669,2.74680907 C71.3342802,20.3205285 76.9800023,32.3195098 78.8424158,35.7344312 C84.9289991,33.300835 113.690692,23.0864908 139.186413,35.6882379 C140.790158,33.7436143 145.286492,26.6309787 145.630633,7.83144784 L145.684616,4.80297254 L147.948528,6.81294276 C148.603072,7.39430185 163.753176,21.2286204 158.010735,49.2115969 C161.673706,52.1341657 175.71266,63.8751408 175.577703,71.9600883 C175.520346,75.4279629 170.670873,76.9805072 167.521865,77.6238328 C170.849692,82.1654191 176.783323,90.9635454 175.667674,94.5621132 C174.28436,99.0180729 167.286814,99.4033923 163.175108,99.2321393 C166.529927,104.741531 174.291108,119.601114 179,145.498634 L176.258113,146 Z" id="Fill-112"></path>
                    <path d="M157.793869,187.643106 L158.616576,196.401732 C159.003666,200.518872 161.299121,211.208357 167.196881,211.209482 L167.199138,211.209482 C167.357134,211.209482 167.516259,211.202731 167.682154,211.188103 C171.573367,210.847165 175.258057,201.250257 176.665348,195.281024 L177.923673,189.947534 L179.377235,195.231515 C179.39642,195.301278 181.389425,202.136922 185.446534,202.136922 C185.795253,202.136922 186.160901,202.087413 186.535577,201.99177 C189.96973,201.105106 192.299041,192.190075 192.1986,180.312369 C192.118474,170.447663 187.754402,144.465463 168.50599,145.846094 C151.510147,147.084949 144.352934,172.780221 143.833805,188.685049 C143.490728,199.194501 145.745555,205.029834 148.151607,205.364021 C153.486224,206.123537 155.836977,196.321842 155.85842,196.225074 L157.793869,187.643106 Z M167.199138,214 L167.196881,214 C160.931216,213.998875 158.038763,206.980947 156.761253,201.869122 C155.129382,205.154732 152.277556,208.763278 147.766774,208.126409 C143.174736,207.491791 140.659216,200.18806 141.037278,188.595032 C141.589135,171.719149 149.477643,144.435082 168.301724,143.064578 C190.0081,141.475783 194.910487,169.631886 194.997384,180.289865 C195.041398,185.532214 194.612552,202.787293 187.236401,204.691146 C186.63376,204.84755 186.031118,204.926315 185.446534,204.926315 C181.953696,204.926315 179.65937,202.247193 178.294963,199.818992 C176.632621,205.046712 173.147683,213.510534 167.927048,213.967369 C167.678769,213.988748 167.436132,214 167.199138,214 Z" id="Fill-114"></path>
                    <path d="M108.109907,136 C101.321985,136.001117 97.1228302,125.971188 95.475331,121.064042 C91.1963314,125.926496 81.4102988,135.966481 76.3958286,132.40232 C72.2124178,129.433676 71.8705476,117.86747 71.9515169,112.440784 C67.4014953,115.218371 57.5682306,120.513217 52.7921698,117.607141 C48.137563,114.777041 53.6164817,100.248895 57.1521386,92.1340037 C57.5108774,91.3105596 61.5672115,89 61.5672115,89 C56.2266152,100.743855 52.3400916,114.085437 54.2473671,115.246303 C57.5985941,117.279775 67.3104049,112.31453 72.64088,108.70456 L74.9642474,107.130295 L74.8191775,109.92129 C74.4671863,116.613869 75.0238498,128.023653 78.0152135,130.148742 C80.7861609,132.110707 89.7771205,123.675153 94.9850172,117.352399 L96.7078628,115.259711 L97.4107208,117.870822 C98.5645325,122.151167 102.725452,133.230233 108.112156,133.230233 L108.157139,133.230233 C112.305688,133.183307 116.84109,123.583535 118.724749,117.543456 L119.39387,115.399372 L121.023376,116.95576 C126.202034,121.907598 134.829757,128.431465 137.793006,127.420316 C139.52035,126.833737 140.805737,117.319997 140.542586,107.065492 L140.461617,103.86892 L142.863705,105.996244 C148.919529,111.35701 153.94637,115.230661 156.821903,115.009438 C159.815515,114.779275 160.553235,110.763728 156.641971,95.5629725 L159.885239,96.6232825 C163.118386,111.846384 162.774266,116.380355 157.950974,117.542338 C153.770936,118.550136 147.843313,113.808349 143.370887,110.091119 C143.373136,117.304355 142.725382,128.669448 138.694913,130.041482 C133.909856,131.670494 124.726594,124.077378 120.686004,120.431655 C118.96091,125.196905 114.389521,135.929611 108.188627,136 L108.109907,136 Z" id="Fill-118"></path>
                    <path d="M83.7916476,79.6814611 C83.8801396,82.4840824 84.6284013,90.1871021 89.9457641,95.7532487 C94.0511221,100.050452 100.040576,102.23089 107.748344,102.23089 L108.141517,102.229772 C127.753143,102.043229 132.80951,86.2786238 133.851252,81.8004617 C130.423586,80.743754 119.453935,77.7691105 104.526786,77.7691105 C97.5639196,77.7691105 90.5932121,78.4125182 83.7916476,79.6814611 Z M107.748344,105 C99.2385472,105 92.5669204,102.524668 87.914928,97.6421417 C80.5174425,89.8788025 80.9901468,78.9308188 81.01367,78.4683695 L81.0685574,77.3882042 L82.1304618,77.1793201 C89.4652188,75.7338869 96.9993628,75 104.526786,75 C123.113472,75 135.413864,79.3787467 135.929134,79.5652902 L137,79.9540157 L136.826376,81.0777451 C136.789411,81.3145549 132.869999,104.764307 108.168401,104.998883 L107.748344,105 Z" id="Fill-120"></path>
                    <path d="M105.47015,95 L104.778226,93.5325889 C101.825027,87.2721731 89.5570202,90.7591475 85.0765802,92.6288574 L84,89.9879786 C84.7192375,89.6859663 100.92029,83.0278624 106.544454,90.962026 C110.523021,88.7338205 122.921902,82.9667683 132,91.581036 L130.071032,93.6663043 C120.945137,85.0082333 106.958699,94.020189 106.818721,94.1135592 L105.47015,95 Z" id="Fill-122"></path>
                    <polygon id="Fill-124" points="94.8429585 85 90 78.4636872 91.8045705 77.0001214 94.7945514 80.9689094 98.0141844 76 100 77.2427739"></polygon>
                    <polygon id="Fill-126" points="121.003425 86 116 76.7977631 118.550228 76 121.5 81.7429811 125.293379 77.2828121 127 78.6808948"></polygon>
                    <polygon id="Fill-128" points="109.706225 77 107 76.8812704 107.294867 69 110 69.1175423"></polygon>
                    <path d="M105.528623,59.7029595 C100.689975,59.7029595 99.9395654,60.4956386 99.8477722,61.3504673 C99.6940186,62.7700935 104.258435,65.9528037 108.642707,68.0767913 C114.22947,66.1915888 119.173681,63.3992212 119.155322,62.0995327 C119.134669,60.3746106 114.728596,59.9123053 111.036215,59.8283489 L109.047745,59.7738318 C107.811979,59.7367601 106.628994,59.7029595 105.528623,59.7029595 Z M108.444204,71 L107.916394,70.7535826 C105.249801,69.5116822 96.5787873,65.1404984 97.0159523,61.0757009 C97.4542648,57 102.705983,57 105.528623,57 C106.654237,57 107.86935,57.0359813 109.13839,57.0719626 L111.103912,57.1253894 C116.15139,57.2409657 121.94813,57.9071651 121.999764,62.0668224 C122.055987,66.2679128 112.064298,69.8300623 109.000701,70.8190031 L108.444204,71 Z" id="Fill-130"></path>
                    <path d="M136.00056,57.7751035 C134.748258,57.7885369 133.76007,58.7993955 133.775737,60.026307 C133.788048,61.2386656 134.787427,62.2260159 136.00056,62.2260159 L136.00056,63.6130079 L136.02518,62.2260159 C137.251742,62.2114631 138.23993,61.2028434 138.224263,59.9759319 C138.211952,58.7613344 137.212573,57.7751035 136.00056,57.7751035 Z M136.00056,65 C133.27325,65 131.03276,62.7834994 131.000305,60.0576514 C130.970089,57.300459 133.185958,55.0313445 135.941246,55 C138.72675,55 140.96724,57.2165006 140.999695,59.943468 C141.029911,62.6984216 138.814042,64.9686555 136.058754,65 L136.00056,65 Z" id="Fill-132"></path>
                    <path d="M81.0011193,56.7751035 C79.7486773,56.7885369 78.7603786,57.7993955 78.7760481,59.026307 C78.7894791,60.2386656 79.7867318,61.2260159 80.9988807,61.2260159 L80.9988807,62.6130079 L81.0246235,61.2260159 C82.2513227,61.2114631 83.2396214,60.2006045 83.2239519,58.9748125 C83.2116401,57.7613344 82.2132682,56.7751035 81.0011193,56.7751035 Z M80.9988807,64 C78.2723851,64 76.0316445,61.7834994 76.0003054,59.056532 C75.9700857,56.300459 78.1862028,54.0313445 80.9417989,54 C83.7264956,54 85.9683555,56.2165006 85.9996946,58.9423486 C86.0299143,61.699541 83.8137972,63.9686555 81.0582011,64 L80.9988807,64 Z" id="Fill-134"></path>
                    <path d="M113.573784,161 C113.107629,161 112.626977,160.928539 112.132942,160.779946 C108.512993,159.698956 108.040147,154.696688 108,151.029492 L110.763473,151 C110.822579,156.34029 111.964546,157.797868 112.912469,158.081443 C113.764484,158.335526 114.217256,158.087114 114.521707,157.840971 C115.688209,156.897232 116.38298,154.162432 116.210124,151.190563 L118.970251,151.024955 C119.152029,154.170372 118.531976,158.189201 116.24358,160.041515 C115.456247,160.677858 114.551817,161 113.573784,161" id="Fill-138"></path>
                    <path d="M138.347023,155 C137.113073,155 135.999621,154.610988 135.081979,153.852647 C133.092596,152.205136 132.055615,148.900853 132,144.033575 L134.873424,144 C134.916294,147.818335 135.661298,150.602779 136.916104,151.642459 C137.255585,151.921482 137.831429,152.272287 138.965736,152.071992 C140.547278,151.789496 141.265634,149.205347 141.095314,144.391327 L142.527391,144.230397 L143.962945,144.180613 C144.06027,146.954636 144.309378,154.034417 139.469744,154.896958 C139.087393,154.966425 138.709677,155 138.347023,155" id="Fill-140"></path>
                    <path d="M75.9514093,157 C75.099886,157 74.2957921,156.672953 73.6174413,156.043933 C71.2603102,153.864712 71.0187512,148.658127 71,147.114466 L73.7343603,147.081762 C73.7718627,150.278099 74.4932308,153.15284 75.4870423,154.070751 C75.7451465,154.311676 75.9061859,154.297504 75.9833965,154.297504 C77.1603076,154.234275 78.3195705,151.96239 78.263317,147.031615 L80.9976774,147 C81.0969482,155.46397 77.9908737,156.895345 76.1300968,156.994549 C76.0694313,156.99891 76.0120748,157 75.9514093,157" id="Fill-142"></path>
                    <path d="M150.743169,219 L149.994619,218.551686 C147.320555,216.95184 146.494325,211.750946 146,206.368937 L148.895334,206 L148.905926,206.127451 C149.376712,211.243378 150.060529,213.857241 150.710214,215.151875 C151.354014,213.101479 150.969146,208.759202 150.765531,206.436017 L153.671458,206.203474 C154.11282,211.19754 154.61303,216.859047 151.505842,218.577399 L150.743169,219 Z" id="Fill-180"></path>
                    <path d="M168.257381,228 L167.359198,227.267717 C163.954958,224.488031 163.009084,212.20706 163,212.081755 L165.810371,211.895523 C166.038607,215.399445 167.019682,220.87145 168.19947,223.589059 C169.005678,221.196781 169.05564,216.915742 169.085163,214.360225 C169.10106,213.003719 169.114686,211.834596 169.198713,211 L172,211.291994 C171.927328,211.997836 171.915973,213.108331 171.900076,214.392413 C171.831945,220.218488 171.578728,225.207668 169.141938,227.255072 L168.257381,228 Z" id="Fill-186"></path>
                    <g id="Group-4" transform="translate(0.000000, 117.000000)">
                        <path d="M14.9170455,41.8902014 L15.0352273,47.65833 C15.0375,47.80053 15.5056818,61.8726871 22.1227273,61.8726871 L22.1227273,63.2709871 L22.175,61.8726871 C26.6897727,61.8275443 29.5215909,53.87563 30.2318182,50.8160729 L31.925,43.5130871 L32.9988636,50.9334443 C33.0113636,51.01583 34.2670455,59.3255014 38.9568182,59.3255014 C39.95,59.3051871 40.7818182,58.8718157 41.5863636,57.99943 C45.9590909,53.2662014 47.4079545,37.6817586 46.9568182,30.6564014 C46.4375,22.5295586 43.7511364,3.63050143 30.0477273,3.63050143 C29.3147727,3.63050143 28.5488636,3.68354429 27.7693182,3.79075857 C14.1204545,5.67660143 4.47386364,27.47383 3.82840909,41.6509443 C3.59318182,46.8040014 4.68522727,50.2912871 6.67840909,50.7528729 C6.96818182,50.8194586 7.25454545,50.8510586 7.53295455,50.8510586 C10.4625,50.8510586 12.3409091,47.1121014 12.3590909,47.0748586 L14.9170455,41.8902014 Z M22.1227273,64.6715443 C15.3909091,64.6715443 13.2318182,56.4566729 12.5409091,51.4537157 C11.3238636,52.6150157 9.64431818,53.6499157 7.53295455,53.6499157 C7.03863636,53.6499157 6.5375,53.5923586 6.03863636,53.4772443 C2.48636364,52.6556443 0.7,48.4110871 1.01363636,41.5245443 C1.61931818,28.2107871 10.9488636,3.28854429 27.3806818,1.02011571 C28.2886364,0.894844286 29.1863636,0.831644286 30.0477273,0.831644286 C46.1386364,0.831644286 49.1988636,21.56463 49.7681818,30.4780871 C50.1204545,35.94263 49.2965909,53.7955014 43.6625,59.8920443 C42.3284091,61.3343586 40.7977273,62.0859871 39.1113636,62.12323 L38.9568182,62.1243586 C34.9568182,62.1243586 32.7102273,58.8627871 31.5,55.9228586 C29.9102273,59.7430729 26.9545455,64.6230157 22.2022727,64.6715443 L22.1227273,64.6715443 Z" id="Fill-116"></path>
                        <path d="M38.3855682,72.7980486 L37.6969318,72.2958343 C35.2401136,70.5036629 34.8242045,65.21292 34.7401136,59.7641771 L34.7378409,59.6219771 L37.5560227,59.5779629 L37.5571591,59.7212914 C37.6378409,64.89692 38.10375,67.5727629 38.6344318,68.9191486 C39.4014773,66.8978771 39.3503409,62.5054771 39.3230682,60.1524057 L42.14125,60.11742 C42.1992045,65.1756771 42.2651136,70.9076914 39.1526136,72.4244914 L38.3855682,72.7980486 Z" id="Fill-182"></path>
                        <path d="M5.59193182,64.8319143 L4.95784091,64.2619857 C2.69306818,62.2283 2.82034091,56.9195 3.29534091,51.4865571 L6.11238636,51.5971571 L6.10102273,51.7280714 C5.65102273,56.8935429 5.84306818,59.6055 6.23284091,60.9992857 C7.20443182,59.0660429 7.59988636,54.6860571 7.81125,52.3431429 L10.6180682,52.5914286 C10.16125,57.6293714 9.64534091,63.3399429 6.39306818,64.5362286 L5.59193182,64.8319143 Z" id="Fill-184"></path>
                        <path d="M19.6998864,78.5411229 L18.93625,77.6811514 C16.0373864,74.4229657 17.1282955,62.3822371 17.1407955,62.26148 L19.9453409,62.54588 C19.5919318,65.9733514 19.6578409,71.4322514 20.3726136,74.2604514 C21.5646591,72.0755371 22.3214773,67.9348086 22.7714773,65.4632371 C23.0101136,64.1586086 23.2157955,63.0322943 23.43625,62.2400371 L26.1521591,62.9860229 C25.9646591,63.6552657 25.7714773,64.7251514 25.5442045,65.9620657 C24.5157955,71.5947657 23.4407955,76.38668 20.69875,77.9655514 L19.6998864,78.5411229 Z" id="Fill-188"></path>
                    </g>
                    <path d="M188.045449,215 L187.189335,214.094795 C184.274998,211.008767 182.557226,202.88274 183.099505,201.499726 L185.66452,202.481644 C185.714423,202.351233 185.721077,202.262466 185.722186,202.258082 C185.652322,203.151233 186.495128,207.356164 187.901284,210.241644 C188.236189,208.243836 188.422494,204.907945 188.111986,201.225753 L190.849998,201 C190.85887,201.109589 191.760451,212.147397 189.036855,214.240548 L188.045449,215 Z" id="Fill-190"></path>
                </g>
            </g>
        </g>
    </g>
</svg>