<?xml version="1.0" encoding="UTF-8"?>
<svg width="190px" height="226px" viewBox="0 0 190 226" version="1.1" xmlns="http://www.w3.org/2000/svg" xmlns:xlink="http://www.w3.org/1999/xlink">
    <!-- Generator: Sketch 51.2 (57519) - http://www.bohemiancoding.com/sketch -->
    <title>yeti</title>
    <desc>Created with Sketch.</desc>
    <defs></defs>
    <g id="Page-1" stroke="none" stroke-width="1" fill="none" fill-rule="evenodd">
        <g id="Роза-хутор" transform="translate(-90.000000, -701.000000)">
            <g id="Group">
                <g id="yeti" transform="translate(185.000000, 814.000000) scale(-1, 1) translate(-185.000000, -814.000000) translate(90.000000, 701.000000)">
                    <path d="M172.33535,141 C166.610396,109.723126 155.986769,95.2113963 155.878566,95.0688577 L153.973526,92.5140447 L157.143127,92.9264272 C160.679964,93.3812449 168.271703,93.4030065 169.172307,90.5228574 C169.739556,88.7112034 165.063849,80.9357801 160.342237,74.8098869 L158.885314,72.9220672 L161.261422,72.648959 C164.887882,72.2333122 168.941691,70.8166314 168.964644,69.4510904 C169.066289,63.4133317 156.949672,52.739262 152.272872,49.1344513 L151.59414,48.6132607 L151.778851,47.7787029 C156.103717,28.0844459 148.968837,15.8468044 145.167502,10.9928773 C144.156509,31.790448 137.702546,36.9675351 137.415097,37.1873273 L136.731993,37.7085179 L135.96801,37.3157208 C109.201281,23.5395336 77.9610429,37.2983115 77.6473618,37.4375859 L76.588278,37.913077 L75.953265,36.9446854 C75.6177245,36.4321995 68.1298167,24.7570957 68.9659354,5.56661985 C64.9569374,9.45868381 57.1389539,19.855293 58.3860277,40.9390289 L58.4199097,41.508095 L58.0329998,41.9280941 C50.7199665,49.8830506 40.6887276,62.6125044 41.2887657,66.0073156 C41.8647587,66.8756038 47.0836697,66.7667958 52.0118519,65.7657617 L55.4951335,65.0574213 L53.3693153,67.8940472 C45.2059547,78.7944377 38.9323318,89.5740512 39.6711766,91.4357569 C40.3772324,92.6293813 49.7920387,90.9602658 58.8385155,87.3467504 L61.5709297,86.1226599 L58.7259401,89.8232216 C58.5936912,89.9581436 58.0329998,89.9581436 53.1026317,92.0287608 C47.0038832,94.0743522 39.1673194,95.9284413 37.3213004,92.7773602 C35.2359219,89.2117204 43.7774486,76.4594169 49.2204176,68.9603661 C46.1021866,69.3705724 41.7948089,69.6186548 39.848237,68.2988131 C39.1738772,67.8418193 38.7476206,67.2107326 38.6175576,66.4741021 C37.6109363,60.7584153 51.8457212,44.697259 55.6492417,40.5277345 C54.1136249,11.2148457 69.1757848,1.77139506 69.8217276,1.38077416 L72.1103977,0 L71.8743171,2.65274027 C70.3671174,19.6246199 75.8538051,31.2126773 77.6637562,34.5106493 C83.5788865,32.1603954 111.530391,22.2958576 136.307922,34.466038 C137.866491,32.5880111 142.236168,25.7189588 142.570616,7.56324757 L142.623078,4.63848718 L144.823218,6.5796228 C145.459324,7.14107234 160.182664,20.5016128 154.601982,47.5262683 C158.161771,50.3487491 171.805261,61.687636 171.674105,69.4957017 C171.618364,72.8448135 166.905496,74.3441884 163.845192,74.9654824 C167.079278,79.3515349 172.845765,87.8483555 171.761543,91.3236847 C170.417195,95.627043 163.616763,95.9991666 159.62088,95.8337783 C162.881197,101.154492 170.423753,115.505186 175,140.515804 L172.33535,141 Z" id="Fill-112" fill="#FFFFFE"></path>
                    <path d="M154.171874,181.385553 L154.964111,189.897458 C155.336864,193.898622 157.547301,204.286994 163.226626,204.288088 L163.2288,204.288088 C163.380944,204.288088 163.534175,204.281527 163.693926,204.267311 C167.44102,203.935977 170.98924,194.609405 172.34441,188.808319 L173.556129,183.625068 L174.955856,188.760205 C174.97433,188.828002 176.893521,195.471093 180.800366,195.471093 C181.13617,195.471093 181.488275,195.422979 181.849074,195.33003 C185.156036,194.468342 187.399076,185.804439 187.302356,174.261317 C187.225197,164.674489 183.022757,139.424182 164.487249,140.765923 C148.120883,141.96988 141.228751,166.941341 140.728849,182.398146 C140.398479,192.611557 142.569794,198.282515 144.886732,198.607288 C150.023772,199.34541 152.28746,189.819819 152.308108,189.725776 L154.171874,181.385553 Z M163.2288,207 L163.226626,207 C157.193023,206.998906 154.407698,200.178666 153.177503,195.210837 C151.606071,198.403895 148.859869,201.910791 144.516152,201.291863 C140.094191,200.675121 137.671838,193.577129 138.035897,182.310665 C138.567315,165.910159 146.163657,139.394657 164.290549,138.062759 C185.192986,136.518718 189.913802,163.881692 189.997481,174.239447 C190.039864,179.334123 189.626902,196.103144 182.523942,197.953368 C181.943621,198.105366 181.363299,198.181912 180.800366,198.181912 C177.436893,198.181912 175.227542,195.578258 173.913668,193.218457 C172.312894,198.298918 168.957028,206.524322 163.92975,206.968288 C163.690666,206.989065 163.457016,207 163.2288,207 Z" id="Fill-114" fill="#FFFFFE"></path>
                    <path d="M106.566396,132 C99.9619314,132.001094 95.8762672,122.184567 94.273295,117.381829 C90.1099441,122.140826 80.5883988,131.967194 75.7094549,128.478867 C71.6391092,125.573385 71.3064788,114.253269 71.3852597,108.942043 C66.9582116,111.660533 57.3907108,116.842723 52.7437328,113.998479 C48.2149261,111.228593 53.545766,97.0095564 56.9858646,89.0673228 C57.3349077,88.2613988 61.2816112,86 61.2816112,86 C56.0853553,97.4939856 52.3038729,110.551704 54.1596004,111.687871 C57.4202537,113.678077 66.8695831,108.818476 72.0559914,105.285314 L74.3165651,103.744544 L74.175416,106.476157 C73.832938,113.02634 74.3745566,124.193363 77.2850726,126.273237 C79.9811295,128.193458 88.7290903,119.937384 93.796233,113.749156 L95.4725151,111.700994 L96.156377,114.256549 C97.2790046,118.445823 101.327467,129.289165 106.568584,129.289165 L106.612351,129.289165 C110.648777,129.243237 115.061601,119.847715 116.894351,113.936148 L117.545387,111.837684 L119.130852,113.360957 C124.169547,118.207436 132.564087,124.592498 135.447249,123.602862 C137.127908,123.028764 138.378554,113.717444 138.122517,103.68112 L138.043736,100.55256 L140.380902,102.634622 C146.273056,107.881329 151.164036,111.672562 153.961851,111.456045 C156.874555,111.23078 157.592337,107.30067 153.786782,92.4233348 L156.942395,93.461085 C160.088159,108.360291 159.75334,112.797794 155.060407,113.935054 C150.993344,114.921409 145.225926,110.280512 140.874377,106.642372 C140.876565,113.702135 140.246318,124.825417 136.324781,126.168259 C131.669049,127.762611 122.733984,120.331051 118.802599,116.762896 C117.124128,121.426758 112.676291,131.931108 106.642988,132 L106.566396,132 Z" id="Fill-118" fill="#FFFFFE"></path>
                    <path d="M56,90 C36.7276886,113.998308 34.5071371,129.498317 31,150" id="Line" stroke="#FFFFFF" stroke-width="2.8" stroke-linecap="round" stroke-linejoin="round"></path>
                    <path d="M81.7417967,76.5254124 C81.8287085,79.234613 82.5636084,86.6808653 87.7860183,92.0614737 C91.8180664,96.2154373 97.7005659,98.3231932 105.270695,98.3231932 L105.656847,98.3221134 C124.918266,98.141788 129.884341,82.9026697 130.90748,78.5737796 C127.541022,77.5522955 116.767258,74.6768068 102.106665,74.6768068 C95.2681353,74.6768068 88.4219047,75.2987675 81.7417967,76.5254124 Z M105.270695,101 C96.9128589,101 90.3603682,98.6071788 85.7914472,93.8874037 C78.5260596,86.3828425 78.9903227,75.7997915 79.0134259,75.3527572 L79.0673332,74.3085974 L80.110275,74.1066761 C87.3140541,72.709424 94.7136599,72 102.106665,72 C120.361446,72 132.442188,76.2327885 132.948257,76.4131139 L134,76.7888819 L133.829477,77.8751536 C133.793172,78.1040697 129.943749,100.772164 105.683251,100.99892 L105.270695,101 Z" id="Fill-120" fill="#FFFFFE"></path>
                    <path d="M103.575561,92 L102.912466,90.5325889 C100.082318,84.2721731 88.3254777,87.7591475 84.0317227,89.6288574 L83,86.9879786 C83.6892693,86.6859663 99.2152781,80.0278624 104.605102,87.962026 C108.417896,85.7338205 120.300156,79.9667683 129,88.581036 L127.151406,90.6663043 C118.405757,82.0082333 105.002086,91.020189 104.867941,91.1135592 L103.575561,92 Z" id="Fill-122" fill="#FFFFFE"></path>
                    <polygon id="Fill-124" fill="#FFFFFE" points="92.8429585 82 88 75.4636872 89.8045705 74.0001214 92.7945514 77.9689094 96.0141844 73 98 74.2427739"></polygon>
                    <polygon id="Fill-126" fill="#FFFFFE" points="119.003425 83 114 73.7977631 116.550228 73 119.5 78.7429811 123.293379 74.2828121 125 75.6808948"></polygon>
                    <polygon id="Fill-128" fill="#FFFFFE" points="107.706225 73 105 72.8961116 105.294867 66 108 66.1028495"></polygon>
                    <path d="M103.187478,57.7029595 C98.5423757,57.7029595 97.8219828,58.4956386 97.7338613,59.3504673 C97.5862579,60.7700935 101.968098,63.9528037 106.176999,66.0767913 C111.540291,64.1915888 116.286734,61.3992212 116.269109,60.0995327 C116.249282,58.3746106 112.019452,57.9123053 108.474766,57.8283489 L106.565835,57.7738318 C105.3795,57.7367601 104.243834,57.7029595 103.187478,57.7029595 Z M105.986436,69 L105.479738,68.7535826 C102.919809,67.5116822 94.5956358,63.1404984 95.0153142,59.0757009 C95.4360942,55 100.477743,55 103.187478,55 C104.268068,55 105.434576,55.0359813 106.652855,55.0719626 L108.539756,55.1253894 C113.385334,55.2409657 118.950205,55.9071651 118.999773,60.0668224 C119.053748,64.2679128 109.461726,67.8300623 106.520673,68.8190031 L105.986436,69 Z" id="Fill-130" fill="#FFFFFE"></path>
                    <path d="M133.00056,55.7751035 C131.748258,55.7885369 130.76007,56.7993955 130.775737,58.026307 C130.788048,59.2386656 131.787427,60.2260159 133.00056,60.2260159 L133.00056,61.6130079 L133.02518,60.2260159 C134.251742,60.2114631 135.23993,59.2028434 135.224263,57.9759319 C135.211952,56.7613344 134.212573,55.7751035 133.00056,55.7751035 Z M133.00056,63 C130.27325,63 128.03276,60.7834994 128.000305,58.0576514 C127.970089,55.300459 130.185958,53.0313445 132.941246,53 C135.72675,53 137.96724,55.2165006 137.999695,57.943468 C138.029911,60.6984216 135.814042,62.9686555 133.058754,63 L133.00056,63 Z" id="Fill-132" fill="#FFFFFE"></path>
                    <path d="M79.0011193,54.7751035 C77.7486773,54.7885369 76.7603786,55.7993955 76.7760481,57.026307 C76.7894791,58.2386656 77.7867318,59.2260159 78.9988807,59.2260159 L78.9988807,60.6130079 L79.0246235,59.2260159 C80.2513227,59.2114631 81.2396214,58.2006045 81.2239519,56.9748125 C81.2116401,55.7613344 80.2132682,54.7751035 79.0011193,54.7751035 Z M78.9988807,62 C76.2723851,62 74.0316445,59.7834994 74.0003054,57.056532 C73.9700857,54.300459 76.1862028,52.0313445 78.9417989,52 C81.7264956,52 83.9683555,54.2165006 83.9996946,56.9423486 C84.0299143,59.699541 81.8137972,61.9686555 79.0582011,62 L78.9988807,62 Z" id="Fill-134" fill="#FFFFFE"></path>
                    <path d="M111.573784,156 C111.107629,156 110.626977,155.928539 110.132942,155.779946 C106.512993,154.698956 106.040147,149.696688 106,146.029492 L108.763473,146 C108.822579,151.34029 109.964546,152.797868 110.912469,153.081443 C111.764484,153.335526 112.217256,153.087114 112.521707,152.840971 C113.688209,151.897232 114.38298,149.162432 114.210124,146.190563 L116.970251,146.024955 C117.152029,149.170372 116.531976,153.189201 114.24358,155.041515 C113.456247,155.677858 112.551817,156 111.573784,156" id="Fill-138" fill="#FFFFFE"></path>
                    <path d="M134.818104,149 C133.686983,149 132.666319,148.646353 131.825147,147.956952 C130.001547,146.459215 129.05098,143.45532 129,139.030523 L131.633972,139 C131.673269,142.471214 132.35619,145.002526 133.506429,145.94769 C133.81762,146.201347 134.345476,146.520261 135.385258,146.338175 C136.835005,146.08136 137.493498,143.732133 137.337371,139.355752 L138.650109,139.209452 L139.966033,139.164193 C140.055248,141.686033 140.283596,148.122198 135.847265,148.906326 C135.496777,148.969477 135.150537,149 134.818104,149" id="Fill-140" fill="#FFFFFE"></path>
                    <path d="M74.9514093,152 C74.099886,152 73.2957921,151.672953 72.6174413,151.043933 C70.2603102,148.864712 70.0187512,143.658127 70,142.114466 L72.7343603,142.081762 C72.7718627,145.278099 73.4932308,148.15284 74.4870423,149.070751 C74.7451465,149.311676 74.9061859,149.297504 74.9833965,149.297504 C76.1603076,149.234275 77.3195705,146.96239 77.263317,142.031615 L79.9976774,142 C80.0969482,150.46397 76.9908737,151.895345 75.1300968,151.994549 C75.0694313,151.99891 75.0120748,152 74.9514093,152" id="Fill-142" fill="#FFFFFE"></path>
                    <path d="M66.6965829,183 C66.6479772,183 66.5993716,183 66.5507659,182.996765 C62.7940888,182.876011 61.0388845,177.741779 61,173.02372 L63.6776316,173 C63.7100353,176.920216 65.0655931,180.275472 66.637176,180.327224 L66.6782207,180.327224 C68.6840141,180.327224 69.215436,175.604852 69.3299293,174.14717 L72,174.358491 C71.4383346,181.462534 68.8384721,183 66.6965829,183" id="Fill-144" fill="#FFFFFE"></path>
                    <path d="M95.2185124,179 C93.9383452,179 92.70913,178.482327 91.7028294,177.508661 C89.7507336,175.614198 88.8028155,172.23831 89.0342221,168 L91.6603694,168.1542 C91.4777917,171.519075 92.1475973,174.201061 93.4999464,175.512867 C94.1007545,176.096626 94.7758676,176.345549 95.5104245,176.250826 C97.4349213,176.003004 98.3934545,171.551016 98.3679785,169.234705 L100.999433,169.201662 C101.025971,171.557625 100.132189,178.409633 95.8363046,178.960348 C95.6293124,178.986783 95.4223202,179 95.2185124,179" id="Fill-146" fill="#FFFFFE"></path>
                    <path d="M123.204021,180 C122.215257,180 121.288291,179.627945 120.513109,178.918129 C118.924798,177.464203 118.008673,174.603118 118,171.067552 L120.688744,171.062356 C120.696334,174.353695 121.561502,176.314781 122.368125,177.053695 C122.749754,177.400808 123.048985,177.431986 123.251725,177.422633 C125.502464,177.32806 126.14863,172.899769 126.322097,171 L129,171.223441 C128.353834,178.307044 125.581609,179.903349 123.369899,179.996882 C123.314607,179.998961 123.259314,180 123.204021,180" id="Fill-152" fill="#FFFFFE"></path>
                    <path d="M147.150273,212 L146.495292,211.551686 C144.155485,209.95184 143.432535,204.750946 143,199.368937 L145.533417,199 L145.542686,199.127451 C145.954623,204.243378 146.552963,206.857241 147.121437,208.151875 C147.684762,206.101479 147.348003,201.759202 147.16984,199.436017 L149.712525,199.203474 C150.098717,204.19754 150.536401,209.859047 147.817612,211.577399 L147.150273,212 Z" id="Fill-180" fill="#FFFFFE"></path>
                    <path d="M164.257381,220 L163.359198,219.310793 C159.954958,216.694617 159.009084,205.136056 159,205.018123 L161.810371,204.842846 C162.038607,208.140655 163.019682,213.290776 164.19947,215.848526 C165.005678,213.596971 165.05564,209.567758 165.085163,207.162564 C165.10106,205.885853 165.114686,204.785502 165.198713,204 L168,204.274817 C167.927328,204.93914 167.915973,205.984312 167.900076,207.192859 C167.831945,212.676224 167.578728,217.371923 165.141938,219.298891 L164.257381,220 Z" id="Fill-186" fill="#FFFFFE"></path>
                    <g id="Group-4" transform="translate(0.000000, 150.000000)" fill="#FFFFFE">
                        <path d="M14.3203636,40.2994343 L14.4338182,45.84852 C14.436,45.98532 14.8854545,59.5230914 21.2378182,59.5230914 L21.2378182,60.8682914 L21.288,59.5230914 C25.6221818,59.4796629 28.3407273,51.82972 29.0225455,48.8863486 L30.648,41.8606914 L31.6789091,48.9992629 C31.6909091,49.07852 32.8963636,57.0726343 37.3985455,57.0726343 C38.352,57.0530914 39.1505455,56.6361771 39.9229091,55.79692 C44.1207273,51.2434343 45.5116364,36.2508057 45.0785455,29.4922343 C44.58,21.6740057 42.0010909,3.49263429 28.8458182,3.49263429 C28.1421818,3.49263429 27.4069091,3.54366286 26.6585455,3.64680571 C13.5556364,5.46103429 4.29490909,26.43052 3.67527273,40.0692629 C3.44945455,45.0266343 4.49781818,48.3814914 6.41127273,48.8255486 C6.68945455,48.8896057 6.96436364,48.9200057 7.23163636,48.9200057 C10.044,48.9200057 11.8472727,45.3230343 11.8647273,45.2872057 L14.3203636,40.2994343 Z M21.2378182,62.2156629 C14.7752727,62.2156629 12.7025455,54.3127486 12.0392727,49.4997771 C10.8709091,50.6169771 9.25854545,51.6125771 7.23163636,51.6125771 C6.75709091,51.6125771 6.276,51.5572057 5.79709091,51.4464629 C2.38690909,50.6560629 0.672,46.5726914 0.973090909,39.9476629 C1.55454545,27.1394914 10.5109091,3.16366286 26.2854545,0.981377143 C27.1570909,0.860862857 28.0189091,0.800062857 28.8458182,0.800062857 C44.2930909,0.800062857 47.2309091,20.74572 47.7774545,29.3206914 C48.1156364,34.57772 47.3247273,51.7526343 41.916,57.6176629 C40.6352727,59.0052057 39.1658182,59.7282914 37.5469091,59.76412 L37.3985455,59.7652057 C33.5585455,59.7652057 31.4018182,56.6274914 30.24,53.7992057 C28.7138182,57.4743486 25.8763636,62.1689771 21.3141818,62.2156629 L21.2378182,62.2156629 Z" id="Fill-116"></path>
                        <path d="M36.8501455,70.0335657 L36.1890545,69.5504229 C33.8305091,67.8263086 33.4312364,62.73648 33.3505091,57.4946514 L33.3483273,57.3578514 L36.0537818,57.3155086 L36.0548727,57.4533943 C36.1323273,62.43248 36.5796,65.0067086 37.0890545,66.3019657 C37.8254182,64.3574514 37.7763273,60.1318514 37.7501455,57.8681371 L40.4556,57.83448 C40.5112364,62.7006514 40.5745091,68.2149943 37.5865091,69.6741943 L36.8501455,70.0335657 Z" id="Fill-182"></path>
                        <path d="M5.36825455,62.3699429 L4.75952727,61.8216571 C2.58534545,59.8652 2.70752727,54.758 3.16352727,49.5313714 L5.86789091,49.6377714 L5.85698182,49.7637143 C5.42498182,54.7330286 5.60934545,57.342 5.98352727,58.6828571 C6.91625455,56.8230286 7.29589091,52.6093714 7.4988,50.3554286 L10.1933455,50.5942857 C9.7548,55.4409143 9.25952727,60.9346286 6.13734545,62.0854857 L5.36825455,62.3699429 Z" id="Fill-184"></path>
                        <path d="M18.9118909,75.5585486 L18.1788,74.7312343 C15.3958909,71.5967771 16.4431636,60.0132914 16.4551636,59.89712 L19.1475273,60.17072 C18.8082545,63.4680343 18.8715273,68.7196343 19.5577091,71.4404343 C20.7020727,69.3384914 21.4286182,65.3550057 21.8606182,62.9772914 C22.0897091,61.7222057 22.2871636,60.6386629 22.4988,59.8764914 L25.1060727,60.5941486 C24.9260727,61.2379771 24.7406182,62.2672343 24.5224364,63.4571771 C23.5351636,68.8759771 22.5031636,73.48592 19.8708,75.0048343 L18.9118909,75.5585486 Z" id="Fill-188"></path>
                    </g>
                    <path d="M183.045449,209 L182.189335,208.094795 C179.274998,205.008767 177.557226,196.88274 178.099505,195.499726 L180.66452,196.481644 C180.714423,196.351233 180.721077,196.262466 180.722186,196.258082 C180.652322,197.151233 181.495128,201.356164 182.901284,204.241644 C183.236189,202.243836 183.422494,198.907945 183.111986,195.225753 L185.849998,195 C185.85887,195.109589 186.760451,206.147397 184.036855,208.240548 L183.045449,209 Z" id="Fill-190" fill="#FFFFFE"></path>
                </g>
            </g>
        </g>
    </g>
</svg>